# xmcd CD database file
#
# Track frame offsets:
#	150
#	14587
#	28600
#	51305
#	62910
#	77840
#	102290
#	127396
#	141203
#	160055
#	174336
#	188521
#	226359
#	241343
#	253855
#
# Disc length: 3648 seconds
#
# Revision: 0
# Processed by: cddbd v1.5.2PL0 Copyright (c) Steve Scherf et al.
# Submitted via: CDex 1.51
#
DISCID=cf0e3e0f
DTITLE=Various Artist - Afrocuban Jazz (J&T 184)
DYEAR=2008
DGENRE=Jazz
TTITLE0=Perez Prado/Bessame Mucho
TTITLE1=Cal Tjader/Blues from Havana
TTITLE2=Dizzy Gillespie/Con Alma
TTITLE3=James Moody/Cu-Ba
TTITLE4=Dizzy Gillespie/Cubana Bop
TTITLE5=Howard McGhee/Cubop City
TTITLE6=Omar Sosa/Dos Caminos
TTITLE7=Chico O'Farrill/Havana Special
TTITLE8=Tito Puente/Mambo Beat
TTITLE9=Tito Puente/Mambo Diablo
TTITLE10=Dizzy Gillespie/Manteca
TTITLE11=Duke Ellington/Perdido
TTITLE12=George Shearing/Sorry, Wrong Rhumba
TTITLE13=James Moody/Tin-Tin-Deo
TTITLE14=Omar Sosa/Toridanzon 
EXTD=YEAR: 2008
EXTT0=
EXTT1=
EXTT2=
EXTT3=
EXTT4=
EXTT5=
EXTT6=
EXTT7=
EXTT8=
EXTT9=
EXTT10=
EXTT11=
EXTT12=
EXTT13=
EXTT14=
PLAYORDER=
